<svg width="252" height="156" viewBox="0 0 252 156" fill="none" xmlns="http://www.w3.org/2000/svg">
<rect width="252" height="156" fill="#F5F5F5"/>
<path d="M29.6724 2.90646C25.7404 -0.58869 17.7255 5.27133 15.612 8.24943C11.6889 13.7774 8.96965 20.1293 7.48814 26.7468C5.81451 34.2223 3.54796 41.9222 2.67634 49.5247C2.04209 55.0567 1.29009 61.8733 3.73868 67.1471C5.56027 71.0706 11.3876 77.8006 15.9244 78.7392C19.8746 79.5565 25.8494 75.9841 28.8288 73.6775C31.3429 71.731 33.1708 69.5296 33.6094 66.4597" stroke="black" stroke-width="3" stroke-linecap="round"/>
<path d="M29.6724 2.90646C25.7404 -0.58869 17.7255 5.27133 15.612 8.24943C11.6889 13.7774 8.96965 20.1293 7.48814 26.7468C5.81451 34.2223 3.54796 41.9222 2.67634 49.5247C2.04209 55.0567 1.29009 61.8733 3.73868 67.1471C5.56027 71.0706 11.3876 77.8006 15.9244 78.7392C19.8746 79.5565 25.8494 75.9841 28.8288 73.6775C31.3429 71.731 33.1708 69.5296 33.6094 66.4597" stroke="black" stroke-opacity="0.2" stroke-width="3" stroke-linecap="round"/>
<path d="M29.6724 2.90646C25.7404 -0.58869 17.7255 5.27133 15.612 8.24943C11.6889 13.7774 8.96965 20.1293 7.48814 26.7468C5.81451 34.2223 3.54796 41.9222 2.67634 49.5247C2.04209 55.0567 1.29009 61.8733 3.73868 67.1471C5.56027 71.0706 11.3876 77.8006 15.9244 78.7392C19.8746 79.5565 25.8494 75.9841 28.8288 73.6775C31.3429 71.731 33.1708 69.5296 33.6094 66.4597" stroke="black" stroke-opacity="0.2" stroke-width="3" stroke-linecap="round"/>
<path d="M37.5463 45.0878C37.5463 43.8139 37.5463 42.3307 37.5463 44.7754C37.5463 48.4361 37.6322 51.5972 39.671 54.7739C41.4744 57.584 42.0589 59.6401 45.7326 59.7107C48.1603 59.7574 49.2805 60.0198 49.9195 57.3361C51.2792 51.6254 52.1922 45.3368 52.6691 39.4949C52.732 38.7247 51.7407 34.5046 51.638 35.8392C51.2391 41.0248 50.7608 48.0394 56.1061 50.712" stroke="black" stroke-width="3" stroke-linecap="round"/>
<path d="M37.5463 45.0878C37.5463 43.8139 37.5463 42.3307 37.5463 44.7754C37.5463 48.4361 37.6322 51.5972 39.671 54.7739C41.4744 57.584 42.0589 59.6401 45.7326 59.7107C48.1603 59.7574 49.2805 60.0198 49.9195 57.3361C51.2792 51.6254 52.1922 45.3368 52.6691 39.4949C52.732 38.7247 51.7407 34.5046 51.638 35.8392C51.2391 41.0248 50.7608 48.0394 56.1061 50.712" stroke="black" stroke-opacity="0.2" stroke-width="3" stroke-linecap="round"/>
<path d="M37.5463 45.0878C37.5463 43.8139 37.5463 42.3307 37.5463 44.7754C37.5463 48.4361 37.6322 51.5972 39.671 54.7739C41.4744 57.584 42.0589 59.6401 45.7326 59.7107C48.1603 59.7574 49.2805 60.0198 49.9195 57.3361C51.2792 51.6254 52.1922 45.3368 52.6691 39.4949C52.732 38.7247 51.7407 34.5046 51.638 35.8392C51.2391 41.0248 50.7608 48.0394 56.1061 50.712" stroke="black" stroke-opacity="0.2" stroke-width="3" stroke-linecap="round"/>
<path d="M64.5424 51.8369C65.8625 50.9293 65.4153 49.4916 66.5421 48.4311C68.5113 46.5778 69.428 44.1743 69.5729 41.4946C69.6871 39.3814 69.2622 37.3628 66.917 36.7766C65.8579 36.5118 63.9799 36.4081 63.9799 37.9014C63.9799 39.6987 68.8215 38.9012 70.1666 38.9012C75.559 38.9012 76.2626 49.3705 76.9156 52.9617" stroke="black" stroke-width="3" stroke-linecap="round"/>
<path d="M64.5424 51.8369C65.8625 50.9293 65.4153 49.4916 66.5421 48.4311C68.5113 46.5778 69.428 44.1743 69.5729 41.4946C69.6871 39.3814 69.2622 37.3628 66.917 36.7766C65.8579 36.5118 63.9799 36.4081 63.9799 37.9014C63.9799 39.6987 68.8215 38.9012 70.1666 38.9012C75.559 38.9012 76.2626 49.3705 76.9156 52.9617" stroke="black" stroke-opacity="0.2" stroke-width="3" stroke-linecap="round"/>
<path d="M64.5424 51.8369C65.8625 50.9293 65.4153 49.4916 66.5421 48.4311C68.5113 46.5778 69.428 44.1743 69.5729 41.4946C69.6871 39.3814 69.2622 37.3628 66.917 36.7766C65.8579 36.5118 63.9799 36.4081 63.9799 37.9014C63.9799 39.6987 68.8215 38.9012 70.1666 38.9012C75.559 38.9012 76.2626 49.3705 76.9156 52.9617" stroke="black" stroke-opacity="0.2" stroke-width="3" stroke-linecap="round"/>
<path d="M85.9143 36.6516C86.1854 37.6458 87.0813 38.3933 87.7265 39.1512C90.3393 42.2202 92.8662 45.4382 94.788 48.9935C96.2022 51.6099 97.2549 54.4259 98.1937 57.2423C98.4982 58.1557 98.0734 60.3612 98.9749 60.0232C99.6262 59.7789 99.7788 55.7739 99.7873 55.7113C100.476 50.6158 100.798 45.493 101.443 40.401C101.691 38.4505 102.007 32.9316 103.349 31.5898" stroke="black" stroke-width="3" stroke-linecap="round"/>
<path d="M85.9143 36.6516C86.1854 37.6458 87.0813 38.3933 87.7265 39.1512C90.3393 42.2202 92.8662 45.4382 94.788 48.9935C96.2022 51.6099 97.2549 54.4259 98.1937 57.2423C98.4982 58.1557 98.0734 60.3612 98.9749 60.0232C99.6262 59.7789 99.7788 55.7739 99.7873 55.7113C100.476 50.6158 100.798 45.493 101.443 40.401C101.691 38.4505 102.007 32.9316 103.349 31.5898" stroke="black" stroke-opacity="0.2" stroke-width="3" stroke-linecap="round"/>
<path d="M85.9143 36.6516C86.1854 37.6458 87.0813 38.3933 87.7265 39.1512C90.3393 42.2202 92.8662 45.4382 94.788 48.9935C96.2022 51.6099 97.2549 54.4259 98.1937 57.2423C98.4982 58.1557 98.0734 60.3612 98.9749 60.0232C99.6262 59.7789 99.7788 55.7739 99.7873 55.7113C100.476 50.6158 100.798 45.493 101.443 40.401C101.691 38.4505 102.007 32.9316 103.349 31.5898" stroke="black" stroke-opacity="0.2" stroke-width="3" stroke-linecap="round"/>
<path d="M114.598 36.0892C117.107 36.0892 121.909 36.3225 121.909 32.5897C121.909 28.7119 117.434 30.0606 115.972 32.1522C113.574 35.5858 113.745 41.2382 113.723 45.2128C113.699 49.5902 113.726 53.7081 116.847 57.0861C120.984 61.5637 128.043 59.4241 130.908 54.649" stroke="black" stroke-width="3" stroke-linecap="round"/>
<path d="M114.598 36.0892C117.107 36.0892 121.909 36.3225 121.909 32.5897C121.909 28.7119 117.434 30.0606 115.972 32.1522C113.574 35.5858 113.745 41.2382 113.723 45.2128C113.699 49.5902 113.726 53.7081 116.847 57.0861C120.984 61.5637 128.043 59.4241 130.908 54.649" stroke="black" stroke-opacity="0.2" stroke-width="3" stroke-linecap="round"/>
<path d="M114.598 36.0892C117.107 36.0892 121.909 36.3225 121.909 32.5897C121.909 28.7119 117.434 30.0606 115.972 32.1522C113.574 35.5858 113.745 41.2382 113.723 45.2128C113.699 49.5902 113.726 53.7081 116.847 57.0861C120.984 61.5637 128.043 59.4241 130.908 54.649" stroke="black" stroke-opacity="0.2" stroke-width="3" stroke-linecap="round"/>
<path d="M64.5424 153.635C67.6704 149.955 69.6704 144.465 72.1038 140.262C73.9281 137.11 78.3827 131.772 81.6649 129.888C85.7476 127.544 88.8304 123.887 92.6008 121.139C96.2363 118.49 99.46 115.603 103.349 113.172C111.788 107.897 122.125 103.018 131.689 100.236C138.413 98.2799 145.537 96.0534 152.436 94.9244C159.66 93.7422 167.092 91.7114 174.339 91.0812C187.496 89.9371 199.467 89.6368 212.396 92.6435C215.465 93.3573 218.423 94.4148 221.52 95.0181C224.313 95.5622 226.362 97.7545 228.894 98.955C234.629 101.675 239.716 104.161 243.298 109.672C247.075 115.484 250.14 123.69 250.14 130.607C250.14 132.902 250.327 135.289 250.109 137.574C249.871 140.074 248.297 142.196 247.891 144.636" stroke="black" stroke-width="3" stroke-linecap="round"/>
<path d="M64.5424 153.635C67.6704 149.955 69.6704 144.465 72.1038 140.262C73.9281 137.11 78.3827 131.772 81.6649 129.888C85.7476 127.544 88.8304 123.887 92.6008 121.139C96.2363 118.49 99.46 115.603 103.349 113.172C111.788 107.897 122.125 103.018 131.689 100.236C138.413 98.2799 145.537 96.0534 152.436 94.9244C159.66 93.7422 167.092 91.7114 174.339 91.0812C187.496 89.9371 199.467 89.6368 212.396 92.6435C215.465 93.3573 218.423 94.4148 221.52 95.0181C224.313 95.5622 226.362 97.7545 228.894 98.955C234.629 101.675 239.716 104.161 243.298 109.672C247.075 115.484 250.14 123.69 250.14 130.607C250.14 132.902 250.327 135.289 250.109 137.574C249.871 140.074 248.297 142.196 247.891 144.636" stroke="black" stroke-opacity="0.2" stroke-width="3" stroke-linecap="round"/>
<path d="M64.5424 153.635C67.6704 149.955 69.6704 144.465 72.1038 140.262C73.9281 137.11 78.3827 131.772 81.6649 129.888C85.7476 127.544 88.8304 123.887 92.6008 121.139C96.2363 118.49 99.46 115.603 103.349 113.172C111.788 107.897 122.125 103.018 131.689 100.236C138.413 98.2799 145.537 96.0534 152.436 94.9244C159.66 93.7422 167.092 91.7114 174.339 91.0812C187.496 89.9371 199.467 89.6368 212.396 92.6435C215.465 93.3573 218.423 94.4148 221.52 95.0181C224.313 95.5622 226.362 97.7545 228.894 98.955C234.629 101.675 239.716 104.161 243.298 109.672C247.075 115.484 250.14 123.69 250.14 130.607C250.14 132.902 250.327 135.289 250.109 137.574C249.871 140.074 248.297 142.196 247.891 144.636" stroke="black" stroke-opacity="0.2" stroke-width="3" stroke-linecap="round"/>
</svg>
