<svg width="278" height="130" viewBox="0 0 278 130" fill="none" xmlns="http://www.w3.org/2000/svg">
<rect width="278" height="130" fill="#F5F5F5"/>
<g clip-path="url(#clip0_0_1)">
<rect width="120" height="120" transform="translate(78 10)" fill="white"/>
<path d="M79.0865 12.9578C79.0865 14.7785 79.9163 12.9578 81.3362 12.9578" stroke="black" stroke-width="3" stroke-linecap="round"/>
<path d="M79.0865 12.9578C79.0865 14.7785 79.9163 12.9578 81.3362 12.9578" stroke="black" stroke-opacity="0.2" stroke-width="3" stroke-linecap="round"/>
<path d="M79.0865 12.9578C79.0865 14.7785 79.9163 12.9578 81.3362 12.9578" stroke="black" stroke-opacity="0.2" stroke-width="3" stroke-linecap="round"/>
<path d="M97.0839 21.9565C95.3941 27.871 93.6595 32.9926 94.6468 39.3915C94.932 41.2401 95.651 45.0669 98.0838 45.4531C101.095 45.9311 102.224 39.7298 102.583 37.9542C103.325 34.2875 105.057 23.5932 101.49 20.7692C98.2434 18.1993 95.6644 21.5285 95.3967 24.2062" stroke="black" stroke-width="3" stroke-linecap="round"/>
<path d="M97.0839 21.9565C95.3941 27.871 93.6595 32.9926 94.6468 39.3915C94.932 41.2401 95.651 45.0669 98.0838 45.4531C101.095 45.9311 102.224 39.7298 102.583 37.9542C103.325 34.2875 105.057 23.5932 101.49 20.7692C98.2434 18.1993 95.6644 21.5285 95.3967 24.2062" stroke="black" stroke-opacity="0.2" stroke-width="3" stroke-linecap="round"/>
<path d="M97.0839 21.9565C95.3941 27.871 93.6595 32.9926 94.6468 39.3915C94.932 41.2401 95.651 45.0669 98.0838 45.4531C101.095 45.9311 102.224 39.7298 102.583 37.9542C103.325 34.2875 105.057 23.5932 101.49 20.7692C98.2434 18.1993 95.6644 21.5285 95.3967 24.2062" stroke="black" stroke-opacity="0.2" stroke-width="3" stroke-linecap="round"/>
</g>
<path d="M2.59763 9.58328C2.59763 10.7259 3.13142 15.3506 3.72246 12.3954" stroke="black" stroke-width="3" stroke-linecap="round"/>
<path d="M2.59763 9.58328C2.59763 10.7259 3.13142 15.3506 3.72246 12.3954" stroke="black" stroke-opacity="0.2" stroke-width="3" stroke-linecap="round"/>
<path d="M2.59763 9.58328C2.59763 10.7259 3.13142 15.3506 3.72246 12.3954" stroke="black" stroke-opacity="0.2" stroke-width="3" stroke-linecap="round"/>
<path d="M3.72247 12.3954C3.72247 11.376 4.07623 9.67621 3.65998 8.73965C3.45955 8.2887 2.63409 7.21641 2.59763 7.70855C1.87662 17.4423 3.42551 27.5587 3.90994 37.2668C4.67928 52.6843 5.97214 68.1388 5.97214 83.5726C5.97214 84.4449 6.67291 91.2723 4.84731 89.4467" stroke="black" stroke-width="3" stroke-linecap="round"/>
<path d="M3.72247 12.3954C3.72247 11.376 4.07623 9.67621 3.65998 8.73965C3.45955 8.2887 2.63409 7.21641 2.59763 7.70855C1.87662 17.4423 3.42551 27.5587 3.90994 37.2668C4.67928 52.6843 5.97214 68.1388 5.97214 83.5726C5.97214 84.4449 6.67291 91.2723 4.84731 89.4467" stroke="black" stroke-opacity="0.2" stroke-width="3" stroke-linecap="round"/>
<path d="M3.72247 12.3954C3.72247 11.376 4.07623 9.67621 3.65998 8.73965C3.45955 8.2887 2.63409 7.21641 2.59763 7.70855C1.87662 17.4423 3.42551 27.5587 3.90994 37.2668C4.67928 52.6843 5.97214 68.1388 5.97214 83.5726C5.97214 84.4449 6.67291 91.2723 4.84731 89.4467" stroke="black" stroke-opacity="0.2" stroke-width="3" stroke-linecap="round"/>
<path d="M6.53455 20.8317C5.89247 20.7603 5.40971 20.4076 5.40971 19.7068C5.40971 16.8959 13.786 14.0357 15.4083 13.1453C21.0441 10.0519 26.8485 7.18783 32.2808 3.74038C32.737 3.45089 36.326 1.70943 34.0931 1.70943" stroke="black" stroke-width="3" stroke-linecap="round"/>
<path d="M6.53455 20.8317C5.89247 20.7603 5.40971 20.4076 5.40971 19.7068C5.40971 16.8959 13.786 14.0357 15.4083 13.1453C21.0441 10.0519 26.8485 7.18783 32.2808 3.74038C32.737 3.45089 36.326 1.70943 34.0931 1.70943" stroke="black" stroke-opacity="0.2" stroke-width="3" stroke-linecap="round"/>
<path d="M6.53455 20.8317C5.89247 20.7603 5.40971 20.4076 5.40971 19.7068C5.40971 16.8959 13.786 14.0357 15.4083 13.1453C21.0441 10.0519 26.8485 7.18783 32.2808 3.74038C32.737 3.45089 36.326 1.70943 34.0931 1.70943" stroke="black" stroke-opacity="0.2" stroke-width="3" stroke-linecap="round"/>
<path d="M13.846 50.6398C15.2803 50.4964 16.5967 49.284 17.7204 48.5151C21.2546 46.097 24.8769 43.8438 28.4689 41.5162C29.5068 40.8436 35.7803 36.4587 35.7803 36.5794" stroke="black" stroke-width="3" stroke-linecap="round"/>
<path d="M13.846 50.6398C15.2803 50.4964 16.5967 49.284 17.7204 48.5151C21.2546 46.097 24.8769 43.8438 28.4689 41.5162C29.5068 40.8436 35.7803 36.4587 35.7803 36.5794" stroke="black" stroke-opacity="0.2" stroke-width="3" stroke-linecap="round"/>
<path d="M13.846 50.6398C15.2803 50.4964 16.5967 49.284 17.7204 48.5151C21.2546 46.097 24.8769 43.8438 28.4689 41.5162C29.5068 40.8436 35.7803 36.4587 35.7803 36.5794" stroke="black" stroke-opacity="0.2" stroke-width="3" stroke-linecap="round"/>
<path d="M10.4715 78.7608C10.8597 80.3137 21.8149 72.7176 22.4697 72.3242C28.5044 68.6987 34.8229 65.4997 40.8421 61.8882" stroke="black" stroke-width="3" stroke-linecap="round"/>
<path d="M10.4715 78.7608C10.8597 80.3137 21.8149 72.7176 22.4697 72.3242C28.5044 68.6987 34.8229 65.4997 40.8421 61.8882" stroke="black" stroke-opacity="0.2" stroke-width="3" stroke-linecap="round"/>
<path d="M10.4715 78.7608C10.8597 80.3137 21.8149 72.7176 22.4697 72.3242C28.5044 68.6987 34.8229 65.4997 40.8421 61.8882" stroke="black" stroke-opacity="0.2" stroke-width="3" stroke-linecap="round"/>
<path d="M50.9656 33.2049C50.9656 32.9883 50.891 30.2187 51.3718 30.7365C54.7183 34.3404 55.3174 42.0022 55.9336 46.5467C56.0551 47.4422 57.5465 54.4949 56.5898 55.4516C56.0481 55.9933 56.3819 53.9333 56.3086 53.1707C56.0758 50.7499 56.0274 48.3214 56.0274 45.8905C56.0274 44.489 56.4065 25.4914 62.4639 31.5488C65.6117 34.6966 65.8392 41.4066 66.3384 45.5156C66.658 48.1466 66.1386 51.74 67.2757 54.0143" stroke="black" stroke-width="3" stroke-linecap="round"/>
<path d="M50.9656 33.2049C50.9656 32.9883 50.891 30.2187 51.3718 30.7365C54.7183 34.3404 55.3174 42.0022 55.9336 46.5467C56.0551 47.4422 57.5465 54.4949 56.5898 55.4516C56.0481 55.9933 56.3819 53.9333 56.3086 53.1707C56.0758 50.7499 56.0274 48.3214 56.0274 45.8905C56.0274 44.489 56.4065 25.4914 62.4639 31.5488C65.6117 34.6966 65.8392 41.4066 66.3384 45.5156C66.658 48.1466 66.1386 51.74 67.2757 54.0143" stroke="black" stroke-opacity="0.2" stroke-width="3" stroke-linecap="round"/>
<path d="M50.9656 33.2049C50.9656 32.9883 50.891 30.2187 51.3718 30.7365C54.7183 34.3404 55.3174 42.0022 55.9336 46.5467C56.0551 47.4422 57.5465 54.4949 56.5898 55.4516C56.0481 55.9933 56.3819 53.9333 56.3086 53.1707C56.0758 50.7499 56.0274 48.3214 56.0274 45.8905C56.0274 44.489 56.4065 25.4914 62.4639 31.5488C65.6117 34.6966 65.8392 41.4066 66.3384 45.5156C66.658 48.1466 66.1386 51.74 67.2757 54.0143" stroke="black" stroke-opacity="0.2" stroke-width="3" stroke-linecap="round"/>
<path d="M84.1483 28.1431C84.1483 23.1646 84.1339 38.1 84.1483 43.0784C84.1881 56.8103 86.8105 72.2251 83.2734 85.666C82.4786 88.6865 81.9656 90.5715 78.8678 90.5715C65.9084 90.5715 63.52 76.1111 61.0891 66.3876" stroke="black" stroke-width="3" stroke-linecap="round"/>
<path d="M84.1483 28.1431C84.1483 23.1646 84.1339 38.1 84.1483 43.0784C84.1881 56.8103 86.8105 72.2251 83.2734 85.666C82.4786 88.6865 81.9656 90.5715 78.8678 90.5715C65.9084 90.5715 63.52 76.1111 61.0891 66.3876" stroke="black" stroke-opacity="0.2" stroke-width="3" stroke-linecap="round"/>
<path d="M84.1483 28.1431C84.1483 23.1646 84.1339 38.1 84.1483 43.0784C84.1881 56.8103 86.8105 72.2251 83.2734 85.666C82.4786 88.6865 81.9656 90.5715 78.8678 90.5715C65.9084 90.5715 63.52 76.1111 61.0891 66.3876" stroke="black" stroke-opacity="0.2" stroke-width="3" stroke-linecap="round"/>
<path d="M118.456 16.8947C118.82 13.2485 120.328 18.2011 120.768 19.0819C123.297 24.1403 126.805 21.7243 127.986 17.3947C128.651 14.9567 128.438 7.15652 128.611 14.3326C129.132 35.9618 135.106 57.3618 133.266 79.1045C132.561 87.442 130.31 98.1017 121.518 101.632C116.618 103.6 112.981 99.4723 111.144 95.3833C108.078 88.5555 109.254 82.4834 112.519 76.0112C118.675 63.8088 126.338 51.732 135.391 41.4849C142.656 33.2622 151.705 27.0296 159.137 19.0194C162.7 15.1802 170.291 1.2885 167.386 5.64635" stroke="black" stroke-width="3" stroke-linecap="round"/>
<path d="M118.456 16.8947C118.82 13.2485 120.328 18.2011 120.768 19.0819C123.297 24.1403 126.805 21.7243 127.986 17.3947C128.651 14.9567 128.438 7.15652 128.611 14.3326C129.132 35.9618 135.106 57.3618 133.266 79.1045C132.561 87.442 130.31 98.1017 121.518 101.632C116.618 103.6 112.981 99.4723 111.144 95.3833C108.078 88.5555 109.254 82.4834 112.519 76.0112C118.675 63.8088 126.338 51.732 135.391 41.4849C142.656 33.2622 151.705 27.0296 159.137 19.0194C162.7 15.1802 170.291 1.2885 167.386 5.64635" stroke="black" stroke-opacity="0.2" stroke-width="3" stroke-linecap="round"/>
<path d="M118.456 16.8947C118.82 13.2485 120.328 18.2011 120.768 19.0819C123.297 24.1403 126.805 21.7243 127.986 17.3947C128.651 14.9567 128.438 7.15652 128.611 14.3326C129.132 35.9618 135.106 57.3618 133.266 79.1045C132.561 87.442 130.31 98.1017 121.518 101.632C116.618 103.6 112.981 99.4723 111.144 95.3833C108.078 88.5555 109.254 82.4834 112.519 76.0112C118.675 63.8088 126.338 51.732 135.391 41.4849C142.656 33.2622 151.705 27.0296 159.137 19.0194C162.7 15.1802 170.291 1.2885 167.386 5.64635" stroke="black" stroke-opacity="0.2" stroke-width="3" stroke-linecap="round"/>
<path d="M140.39 125.441C140.39 120.234 142.94 115.627 145.139 111.006C154.521 91.2936 169.398 72.716 187.446 60.2009C198.212 52.7354 211.864 47.9953 224.284 44.1408C231.198 41.9951 237.824 41.0559 245 40.5163C255.295 39.7423 265.617 39.9539 275.933 39.9539" stroke="black" stroke-width="3" stroke-linecap="round"/>
<path d="M140.39 125.441C140.39 120.234 142.94 115.627 145.139 111.006C154.521 91.2936 169.398 72.716 187.446 60.2009C198.212 52.7354 211.864 47.9953 224.284 44.1408C231.198 41.9951 237.824 41.0559 245 40.5163C255.295 39.7423 265.617 39.9539 275.933 39.9539" stroke="black" stroke-opacity="0.2" stroke-width="3" stroke-linecap="round"/>
<path d="M140.39 125.441C140.39 120.234 142.94 115.627 145.139 111.006C154.521 91.2936 169.398 72.716 187.446 60.2009C198.212 52.7354 211.864 47.9953 224.284 44.1408C231.198 41.9951 237.824 41.0559 245 40.5163C255.295 39.7423 265.617 39.9539 275.933 39.9539" stroke="black" stroke-opacity="0.2" stroke-width="3" stroke-linecap="round"/>
<defs>
<clipPath id="clip0_0_1">
<rect width="120" height="120" fill="white" transform="translate(78 10)"/>
</clipPath>
</defs>
</svg>
