<svg width="195" height="134" viewBox="0 0 195 134" fill="none" xmlns="http://www.w3.org/2000/svg">
<rect width="195" height="134" fill="#F5F5F5"/>
<path d="M51.0957 2.78031C47.4926 2.78031 43.543 2.2179 39.7223 2.2179C31.1548 2.2179 19.8515 8.16738 13.9761 14.3099C11.7279 16.6603 8.42039 19.0824 7.22704 22.215C5.88604 25.7351 4.63356 29.4002 3.54007 33.0259C1.22236 40.711 0.608063 48.4663 6.69586 54.5541C11.3651 59.2233 17.204 61.2718 23.8184 61.2718C31.8373 61.2718 36.3811 56.1841 35.223 47.9613C34.7383 44.5202 29.9135 41.9 26.8492 41.4622C25.1283 41.2164 18.193 39.8384 16.6319 41.0873C15.9452 41.6366 18.9086 42.1369 19.1316 42.1184C21.9115 41.8867 24.6941 41.5634 27.4741 41.306C29.383 41.1292 40.642 39.2397 40.9721 39.8999" stroke="black" stroke-width="3" stroke-linecap="round"/>
<path d="M51.0957 2.78031C47.4926 2.78031 43.543 2.2179 39.7223 2.2179C31.1548 2.2179 19.8515 8.16738 13.9761 14.3099C11.7279 16.6603 8.42039 19.0824 7.22704 22.215C5.88604 25.7351 4.63356 29.4002 3.54007 33.0259C1.22236 40.711 0.608063 48.4663 6.69586 54.5541C11.3651 59.2233 17.204 61.2718 23.8184 61.2718C31.8373 61.2718 36.3811 56.1841 35.223 47.9613C34.7383 44.5202 29.9135 41.9 26.8492 41.4622C25.1283 41.2164 18.193 39.8384 16.6319 41.0873C15.9452 41.6366 18.9086 42.1369 19.1316 42.1184C21.9115 41.8867 24.6941 41.5634 27.4741 41.306C29.383 41.1292 40.642 39.2397 40.9721 39.8999" stroke="black" stroke-opacity="0.2" stroke-width="3" stroke-linecap="round"/>
<path d="M51.0957 2.78031C47.4926 2.78031 43.543 2.2179 39.7223 2.2179C31.1548 2.2179 19.8515 8.16738 13.9761 14.3099C11.7279 16.6603 8.42039 19.0824 7.22704 22.215C5.88604 25.7351 4.63356 29.4002 3.54007 33.0259C1.22236 40.711 0.608063 48.4663 6.69586 54.5541C11.3651 59.2233 17.204 61.2718 23.8184 61.2718C31.8373 61.2718 36.3811 56.1841 35.223 47.9613C34.7383 44.5202 29.9135 41.9 26.8492 41.4622C25.1283 41.2164 18.193 39.8384 16.6319 41.0873C15.9452 41.6366 18.9086 42.1369 19.1316 42.1184C21.9115 41.8867 24.6941 41.5634 27.4741 41.306C29.383 41.1292 40.642 39.2397 40.9721 39.8999" stroke="black" stroke-opacity="0.2" stroke-width="3" stroke-linecap="round"/>
<path d="M31.411 44.9617C31.411 42.0834 32.5359 50.6447 32.5359 53.523C32.5359 64.136 32.5359 74.7491 32.5359 85.3621C32.5359 95.9274 33.0983 106.495 33.0983 117.076C33.0983 121.147 33.1482 124.927 32.2547 128.918C31.1293 133.945 31.411 131.637 31.411 128.2" stroke="black" stroke-width="3" stroke-linecap="round"/>
<path d="M31.411 44.9617C31.411 42.0834 32.5359 50.6447 32.5359 53.523C32.5359 64.136 32.5359 74.7491 32.5359 85.3621C32.5359 95.9274 33.0983 106.495 33.0983 117.076C33.0983 121.147 33.1482 124.927 32.2547 128.918C31.1293 133.945 31.411 131.637 31.411 128.2" stroke="black" stroke-opacity="0.2" stroke-width="3" stroke-linecap="round"/>
<path d="M31.411 44.9617C31.411 42.0834 32.5359 50.6447 32.5359 53.523C32.5359 64.136 32.5359 74.7491 32.5359 85.3621C32.5359 95.9274 33.0983 106.495 33.0983 117.076C33.0983 121.147 33.1482 124.927 32.2547 128.918C31.1293 133.945 31.411 131.637 31.411 128.2" stroke="black" stroke-opacity="0.2" stroke-width="3" stroke-linecap="round"/>
<path d="M53.9078 42.1496C53.6834 41.2522 50.1831 41.3452 49.4084 41.7122C48.0141 42.3726 47.0467 44.3505 46.7213 45.7741C46.2807 47.7016 46.3171 50.7793 46.7213 52.7106C47.0265 54.1689 49.1391 57.167 50.5333 57.3662C54.1232 57.879 59.4146 57.9496 60.0631 53.0855C60.754 47.9036 57.2846 42.1484 51.6581 44.9617" stroke="black" stroke-width="3" stroke-linecap="round"/>
<path d="M53.9078 42.1496C53.6834 41.2522 50.1831 41.3452 49.4084 41.7122C48.0141 42.3726 47.0467 44.3505 46.7213 45.7741C46.2807 47.7016 46.3171 50.7793 46.7213 52.7106C47.0265 54.1689 49.1391 57.167 50.5333 57.3662C54.1232 57.879 59.4146 57.9496 60.0631 53.0855C60.754 47.9036 57.2846 42.1484 51.6581 44.9617" stroke="black" stroke-opacity="0.2" stroke-width="3" stroke-linecap="round"/>
<path d="M53.9078 42.1496C53.6834 41.2522 50.1831 41.3452 49.4084 41.7122C48.0141 42.3726 47.0467 44.3505 46.7213 45.7741C46.2807 47.7016 46.3171 50.7793 46.7213 52.7106C47.0265 54.1689 49.1391 57.167 50.5333 57.3662C54.1232 57.879 59.4146 57.9496 60.0631 53.0855C60.754 47.9036 57.2846 42.1484 51.6581 44.9617" stroke="black" stroke-opacity="0.2" stroke-width="3" stroke-linecap="round"/>
<path d="M68.5306 43.2745C68.4547 42.0598 66.8024 41.4838 66.156 42.712C65.389 44.1694 65.7186 46.1813 65.7186 47.7738C65.7186 50.3725 67.1371 53.6426 69.7805 54.3978C73.6949 55.5162 76.8479 51.1001 76.9669 47.6488C77.2209 40.2848 67.1931 41.9349 62.9065 43.2745" stroke="black" stroke-width="3" stroke-linecap="round"/>
<path d="M68.5306 43.2745C68.4547 42.0598 66.8024 41.4838 66.156 42.712C65.389 44.1694 65.7186 46.1813 65.7186 47.7738C65.7186 50.3725 67.1371 53.6426 69.7805 54.3978C73.6949 55.5162 76.8479 51.1001 76.9669 47.6488C77.2209 40.2848 67.1931 41.9349 62.9065 43.2745" stroke="black" stroke-opacity="0.2" stroke-width="3" stroke-linecap="round"/>
<path d="M68.5306 43.2745C68.4547 42.0598 66.8024 41.4838 66.156 42.712C65.389 44.1694 65.7186 46.1813 65.7186 47.7738C65.7186 50.3725 67.1371 53.6426 69.7805 54.3978C73.6949 55.5162 76.8479 51.1001 76.9669 47.6488C77.2209 40.2848 67.1931 41.9349 62.9065 43.2745" stroke="black" stroke-opacity="0.2" stroke-width="3" stroke-linecap="round"/>
<path d="M87.6529 3.34273C89.1169 3.52573 89.9026 12.934 89.9026 14.5599C89.9026 16.8885 91.0274 18.7036 91.0274 21.0589C91.0274 23.5794 91.0274 26.0998 91.0274 28.6203C91.0274 32.7767 91.5898 36.9306 91.5898 41.1497C91.5898 42.7537 91.5898 44.3576 91.5898 45.9616C91.5898 47.2741 92.1065 48.3949 92.4647 49.6485C93.2388 52.3578 92.7146 47.9985 92.7146 47.2114" stroke="black" stroke-width="3" stroke-linecap="round"/>
<path d="M87.6529 3.34273C89.1169 3.52573 89.9026 12.934 89.9026 14.5599C89.9026 16.8885 91.0274 18.7036 91.0274 21.0589C91.0274 23.5794 91.0274 26.0998 91.0274 28.6203C91.0274 32.7767 91.5898 36.9306 91.5898 41.1497C91.5898 42.7537 91.5898 44.3576 91.5898 45.9616C91.5898 47.2741 92.1065 48.3949 92.4647 49.6485C93.2388 52.3578 92.7146 47.9985 92.7146 47.2114" stroke="black" stroke-opacity="0.2" stroke-width="3" stroke-linecap="round"/>
<path d="M87.6529 3.34273C89.1169 3.52573 89.9026 12.934 89.9026 14.5599C89.9026 16.8885 91.0274 18.7036 91.0274 21.0589C91.0274 23.5794 91.0274 26.0998 91.0274 28.6203C91.0274 32.7767 91.5898 36.9306 91.5898 41.1497C91.5898 42.7537 91.5898 44.3576 91.5898 45.9616C91.5898 47.2741 92.1065 48.3949 92.4647 49.6485C93.2388 52.3578 92.7146 47.9985 92.7146 47.2114" stroke="black" stroke-opacity="0.2" stroke-width="3" stroke-linecap="round"/>
<path d="M89.9025 5.02999C89.9025 1.97355 92.7182 1.99879 95.5267 1.68673C98.0793 1.40311 102.611 1.74182 104.213 3.78018C107.016 7.34707 110.568 9.72134 112.087 14.2787C113.374 18.1408 114.087 22.3572 114.087 26.4019C114.087 32.3621 113.454 36.9588 110.181 41.8684C108.198 44.8428 100.683 44.5838 100.026 47.2114" stroke="black" stroke-width="3" stroke-linecap="round"/>
<path d="M89.9025 5.02999C89.9025 1.97355 92.7182 1.99879 95.5267 1.68673C98.0793 1.40311 102.611 1.74182 104.213 3.78018C107.016 7.34707 110.568 9.72134 112.087 14.2787C113.374 18.1408 114.087 22.3572 114.087 26.4019C114.087 32.3621 113.454 36.9588 110.181 41.8684C108.198 44.8428 100.683 44.5838 100.026 47.2114" stroke="black" stroke-opacity="0.2" stroke-width="3" stroke-linecap="round"/>
<path d="M89.9025 5.02999C89.9025 1.97355 92.7182 1.99879 95.5267 1.68673C98.0793 1.40311 102.611 1.74182 104.213 3.78018C107.016 7.34707 110.568 9.72134 112.087 14.2787C113.374 18.1408 114.087 22.3572 114.087 26.4019C114.087 32.3621 113.454 36.9588 110.181 41.8684C108.198 44.8428 100.683 44.5838 100.026 47.2114" stroke="black" stroke-opacity="0.2" stroke-width="3" stroke-linecap="round"/>
<path d="M137.146 30.9012C136.807 27.8513 130.206 31.3307 129.866 33.7133C129.438 36.7073 131.686 40.5036 135.208 38.9938C137.211 38.1354 141.026 31.6567 138.833 29.4639C137.568 28.1986 139.029 33.1836 139.958 34.7132C140.538 35.6689 141.087 36.5254 142.207 36.5254" stroke="black" stroke-width="3" stroke-linecap="round"/>
<path d="M137.146 30.9012C136.807 27.8513 130.206 31.3307 129.866 33.7133C129.438 36.7073 131.686 40.5036 135.208 38.9938C137.211 38.1354 141.026 31.6567 138.833 29.4639C137.568 28.1986 139.029 33.1836 139.958 34.7132C140.538 35.6689 141.087 36.5254 142.207 36.5254" stroke="black" stroke-opacity="0.2" stroke-width="3" stroke-linecap="round"/>
<path d="M137.146 30.9012C136.807 27.8513 130.206 31.3307 129.866 33.7133C129.438 36.7073 131.686 40.5036 135.208 38.9938C137.211 38.1354 141.026 31.6567 138.833 29.4639C137.568 28.1986 139.029 33.1836 139.958 34.7132C140.538 35.6689 141.087 36.5254 142.207 36.5254" stroke="black" stroke-opacity="0.2" stroke-width="3" stroke-linecap="round"/>
<path d="M147.269 29.214C148.05 29.4091 147.726 30.4052 148.394 30.7763C149.08 31.1574 150.456 30.9227 151.206 30.9012C151.551 30.8914 153.123 30.2562 153.331 30.4638C154.268 31.4005 154.018 34.2054 154.018 35.3381C154.018 43.8563 154.398 52.4826 153.956 60.9906C153.714 65.6424 153.631 72.6118 150.644 76.6446C147.995 80.2207 142.882 75.3064 141.77 73.0826C138.149 65.8407 143.522 56.1209 148.05 50.5859C150.403 47.7105 153.872 45.9744 156.955 44.0243C161.683 41.0348 166.348 38.0067 171.484 35.7443C174.291 34.5082 190.013 31.799 190.013 28.0891" stroke="black" stroke-width="3" stroke-linecap="round"/>
<path d="M147.269 29.214C148.05 29.4091 147.726 30.4052 148.394 30.7763C149.08 31.1574 150.456 30.9227 151.206 30.9012C151.551 30.8914 153.123 30.2562 153.331 30.4638C154.268 31.4005 154.018 34.2054 154.018 35.3381C154.018 43.8563 154.398 52.4826 153.956 60.9906C153.714 65.6424 153.631 72.6118 150.644 76.6446C147.995 80.2207 142.882 75.3064 141.77 73.0826C138.149 65.8407 143.522 56.1209 148.05 50.5859C150.403 47.7105 153.872 45.9744 156.955 44.0243C161.683 41.0348 166.348 38.0067 171.484 35.7443C174.291 34.5082 190.013 31.799 190.013 28.0891" stroke="black" stroke-opacity="0.2" stroke-width="3" stroke-linecap="round"/>
<path d="M147.269 29.214C148.05 29.4091 147.726 30.4052 148.394 30.7763C149.08 31.1574 150.456 30.9227 151.206 30.9012C151.551 30.8914 153.123 30.2562 153.331 30.4638C154.268 31.4005 154.018 34.2054 154.018 35.3381C154.018 43.8563 154.398 52.4826 153.956 60.9906C153.714 65.6424 153.631 72.6118 150.644 76.6446C147.995 80.2207 142.882 75.3064 141.77 73.0826C138.149 65.8407 143.522 56.1209 148.05 50.5859C150.403 47.7105 153.872 45.9744 156.955 44.0243C161.683 41.0348 166.348 38.0067 171.484 35.7443C174.291 34.5082 190.013 31.799 190.013 28.0891" stroke="black" stroke-opacity="0.2" stroke-width="3" stroke-linecap="round"/>
<path d="M193.388 56.7725C187.395 57.3718 180.692 62.5383 175.89 65.5525C169.509 69.5578 164.3 73.3182 160.205 79.7067C157.193 84.4047 153.095 87.9116 149.831 92.3923C144.824 99.268 139.847 105.942 135.365 113.171C133.573 116.061 133.989 118.052 133.427 121.419C133.245 122.514 131.951 128.977 131.522 128.762" stroke="black" stroke-width="3" stroke-linecap="round"/>
<path d="M193.388 56.7725C187.395 57.3718 180.692 62.5383 175.89 65.5525C169.509 69.5578 164.3 73.3182 160.205 79.7067C157.193 84.4047 153.095 87.9116 149.831 92.3923C144.824 99.268 139.847 105.942 135.365 113.171C133.573 116.061 133.989 118.052 133.427 121.419C133.245 122.514 131.951 128.977 131.522 128.762" stroke="black" stroke-opacity="0.2" stroke-width="3" stroke-linecap="round"/>
<path d="M193.388 56.7725C187.395 57.3718 180.692 62.5383 175.89 65.5525C169.509 69.5578 164.3 73.3182 160.205 79.7067C157.193 84.4047 153.095 87.9116 149.831 92.3923C144.824 99.268 139.847 105.942 135.365 113.171C133.573 116.061 133.989 118.052 133.427 121.419C133.245 122.514 131.951 128.977 131.522 128.762" stroke="black" stroke-opacity="0.2" stroke-width="3" stroke-linecap="round"/>
</svg>
