<svg width="254" height="153" viewBox="0 0 254 153" fill="none" xmlns="http://www.w3.org/2000/svg">
<rect width="254" height="153" fill="#F5F5F5"/>
<g clip-path="url(#clip0_0_1)">
<rect width="120" height="120" transform="translate(119 33)" fill="white"/>
<path d="M140.896 43.2692C141.874 57.9321 143.745 72.605 144.208 87.2941C144.432 94.4125 144.396 101.679 143.583 108.76C143.245 111.706 142.583 114.536 142.583 117.508" stroke="black" stroke-width="3" stroke-linecap="round"/>
<path d="M134.709 52.8304C137.636 44.8983 141.644 39.9936 150.582 39.4573C159.787 38.905 160.861 48.2117 161.581 55.6424C162.432 64.4448 161.767 73.7918 156.081 81.0138C154.742 82.7155 151.013 86.5694 149.332 84.8882" stroke="black" stroke-width="3" stroke-linecap="round"/>
<path d="M171.829 33.1457C175.963 38.1066 181.042 46.3382 188.577 42.7693C192.597 40.8651 194.046 37.0073 195.451 33.1457" stroke="black" stroke-width="3" stroke-linecap="round"/>
</g>
<path d="M3.10348 16.8356C1.84588 14.1632 1.97864 16.3917 1.97864 18.5228C1.97864 31.4303 3.0514 44.3361 3.88462 57.2047C4.61078 68.4199 6.68402 79.3173 7.75906 90.4811C8.10968 94.1222 7.99424 97.7452 8.19649 101.386C8.3188 103.587 8.69926 99.7952 8.72767 99.5111" stroke="black" stroke-width="3" stroke-linecap="round"/>
<path d="M5.91559 55.6424C14.1634 55.337 22.7017 51.0097 30.4433 48.5497C35.4628 46.9547 40.4781 46.0165 45.2849 43.8316" stroke="black" stroke-width="3" stroke-linecap="round"/>
<path d="M38.5359 2.21268C37.5632 1.3616 37.4122 1.60183 37.661 2.96257C38.4823 7.45562 39.5716 11.8919 40.3481 16.3981C43.6847 35.7613 46.7327 55.434 48.9718 74.9521C50.3817 87.2414 52.5963 124.254 52.5963 111.884" stroke="black" stroke-width="3" stroke-linecap="round"/>
<path d="M66.0944 40.4571C66.1913 39.1002 66.7734 43.1028 66.9067 44.4566C68.0348 55.9062 69.1071 67.2706 69.7188 78.7641C70.0776 85.5042 70.5937 92.1967 70.5937 98.9487C70.5937 100.89 70.0371 102.465 71.7185 102.886" stroke="black" stroke-width="3" stroke-linecap="round"/>
<path d="M67.7816 57.3297C67.7816 51.0859 67.336 46.5176 73.5308 43.3942C76.4922 41.9011 79.8712 41.4867 83.1544 41.707C89.117 42.1069 91.0296 46.3133 92.7155 51.6118C98.3791 69.4116 98.1522 126.064 98.1522 107.385" stroke="black" stroke-width="3" stroke-linecap="round"/>
<path d="M81.8421 84.3258C78.6604 84.3258 87.8581 82.2519 90.872 81.2325C93.9066 80.2061 98.0681 79.9105 100.402 77.5768" stroke="black" stroke-width="3" stroke-linecap="round"/>
<path d="M107.713 41.582C107.922 46.5936 109.774 51.353 111.088 56.1424C114.263 67.7203 115.199 79.8844 115.525 91.8559C115.742 99.8414 115.587 123.81 115.587 115.821" stroke="black" stroke-width="3" stroke-linecap="round"/>
<path d="M105.464 51.1431C107.805 46.4595 110.885 45.0324 116.025 43.9566C123.431 42.4065 126.931 48.1234 127.585 55.08C128.263 62.2845 129.735 72.629 123.836 78.1704C122.65 79.2846 121.098 79.4288 119.587 79.8264C117.378 80.4076 117.53 80.1815 117.274 78.1392" stroke="black" stroke-width="3" stroke-linecap="round"/>
<path d="M196.013 30.3336C193.899 34.7129 192.142 39.19 190.514 43.7692C189.544 46.4966 188.528 48.3868 185.89 49.7058C181.574 51.8636 183.798 44.519 186.077 44.519C189.234 44.519 188.059 81.5013 188.014 83.7009C187.763 96.1219 186.452 108.474 186.452 120.883" stroke="black" stroke-width="3" stroke-linecap="round"/>
<path d="M251.13 17.398C251.13 15.3205 252.255 14.9315 252.255 17.4292C252.255 27.1847 252.026 36.7908 251.38 46.5188C250.586 58.4782 251.13 70.5918 251.13 82.576C251.13 85.6284 250.568 88.6384 250.568 91.6372" stroke="black" stroke-width="3" stroke-linecap="round"/>
<path d="M251.13 100.074C251.13 102.305 250.716 98.5348 250.005 100.667C249.941 100.861 249.198 102.261 249.724 102.261C250.13 102.261 250.005 100.983 250.005 101.761" stroke="black" stroke-width="3" stroke-linecap="round"/>
<defs>
<clipPath id="clip0_0_1">
<rect width="120" height="120" fill="white" transform="translate(119 33)"/>
</clipPath>
</defs>
</svg>
