<svg width="120" height="120" viewBox="0 0 120 120" fill="none" xmlns="http://www.w3.org/2000/svg">
<rect width="120" height="120" fill="#F5F5F5"/>
<rect width="120" height="120" fill="white"/>
<path d="M15.1025 11.9397C15.1025 11.0725 15.0955 9.83348 15.0051 11.7666C14.7139 17.9999 14.8319 24.3011 15.0051 30.5374C15.0961 33.8129 15.2972 37.0951 15.2972 40.3718C15.2972 40.5319 15.1839 44.008 14.9078 42.9034" stroke="black" stroke-width="2" stroke-linecap="round"/>
<path d="M5.94969 28.2979C11.2135 28.7028 16.4248 27.142 21.5722 26.264C24.8848 25.6989 28.2265 25.2439 31.5581 24.8034C33.1291 24.5957 35.2201 24.0983 36.7187 24.5978" stroke="black" stroke-width="2" stroke-linecap="round"/>
<path d="M31.4607 9.60284C30.6756 8.81771 31.7262 10.9207 31.8069 11.2473C32.8088 15.3015 32.7703 19.5229 33.2999 23.6458C33.7603 27.2299 34.284 30.8707 34.966 34.4214C35.2285 35.7877 35.7959 37.4928 35.3555 38.8139" stroke="black" stroke-width="2" stroke-linecap="round"/>
<path d="M41.7819 27.519C41.7819 27.2491 41.8151 26.9587 41.7387 26.6967C41.7125 26.6069 41.9379 29.2578 41.9767 29.7909C42.1197 31.7591 42.3661 37.6714 42.3661 35.698" stroke="black" stroke-width="2" stroke-linecap="round"/>
<path d="M41.9767 25.961C41.2345 25.5157 44.1336 24.7989 44.5299 24.6411C45.359 24.311 46.1391 24.0136 47.0399 24.0136" stroke="black" stroke-width="2" stroke-linecap="round"/>
<path d="M43.5346 30.8295C44.4727 31.4862 46.3598 29.7832 47.4294 30.0506" stroke="black" stroke-width="2" stroke-linecap="round"/>
<path d="M43.5346 36.8665C45.912 36.7845 48.2473 35.4936 50.5452 34.9191" stroke="black" stroke-width="2" stroke-linecap="round"/>
<path d="M53.8558 23.2347C54.4249 25.8458 54.6425 28.5942 54.7863 31.2623C54.8184 31.8579 54.3866 35.1324 54.981 35.5682C55.7897 36.1613 58.0236 35.4127 58.9191 35.2112C59.9636 34.9762 60.8644 34.5583 61.8402 34.1401" stroke="black" stroke-width="2" stroke-linecap="round"/>
<path d="M63.3981 24.0136C63.839 25.7773 64.548 27.3841 64.718 29.2716C64.7961 30.1382 64.2904 32.7458 65.0426 33.3612C66.0781 34.2084 69.2883 33.4018 70.3655 33.1664C70.776 33.0767 74.2733 32.5217 74.1088 32.1927" stroke="black" stroke-width="2" stroke-linecap="round"/>
<path d="M77.8089 22.0662C77.6429 21.7176 77.3591 20.6205 76.7919 20.9411C75.7989 21.5023 75.3134 23.0717 75.1258 24.1002C74.5161 27.4424 76.035 32.1653 80.016 32.6038C83.8073 33.0215 84.6534 25.6337 83.954 23.2779C83.4947 21.7308 81.8832 20.1418 80.2323 19.989C77.8328 19.7668 76.2158 22.4888 74.8878 24.0136" stroke="black" stroke-width="2" stroke-linecap="round"/>
<path d="M17.0499 57.1195C17.3251 62.0731 18.3666 66.997 18.6836 71.963C18.8236 74.157 18.8663 76.3568 18.9973 78.5518C19.07 79.7689 19.1266 80.294 20.1657 79.5146" stroke="black" stroke-width="2" stroke-linecap="round"/>
<path d="M26.008 67.8302C25.9767 67.6116 25.6938 68.1512 25.5968 68.3495C24.5895 70.4092 23.6968 72.5435 22.8921 74.6894C22.6007 75.4664 21.3434 77.6878 22.5026 78.1515" stroke="black" stroke-width="2" stroke-linecap="round"/>
<path d="M27.1764 66.467C27.2171 66.1412 32.4194 69.1721 32.8888 69.4639C34.9444 70.7417 37.0787 71.5017 39.2503 72.504" stroke="black" stroke-width="2" stroke-linecap="round"/>
<path d="M31.8502 49.1351C34.1404 55.2424 34.5443 62.028 37.3895 67.9168C38.2841 69.7685 38.9213 71.4628 39.445 73.4344C39.5618 73.8738 39.5166 74.6223 40.0293 74.4514" stroke="black" stroke-width="2" stroke-linecap="round"/>
<path d="M45.482 57.3142C42.1129 57.8951 43.5032 64.2067 44.0106 66.2939C44.7143 69.1882 47.0752 74.719 50.621 71.1732C53.6695 68.1247 53.3358 62.8952 51.1186 59.5213C49.8151 57.5376 47.1757 56.2637 45.8715 58.8721" stroke="black" stroke-width="2" stroke-linecap="round"/>
<path d="M56.3875 58.2879C55.7935 57.659 55.9569 57.054 55.7167 56.2648C55.5482 55.7112 55.707 55.9418 55.8032 56.3622C56.13 57.7896 56.3915 59.2265 56.7986 60.6356C57.6276 63.5051 58.8972 66.2111 59.6548 69.1068C59.9064 70.0687 60.2156 71.0132 60.4662 71.9738C60.6177 72.5545 60.636 71.9397 60.6718 71.725" stroke="black" stroke-width="2" stroke-linecap="round"/>
<path d="M56.7769 55.951C58.0682 53.7851 60.4464 53.2875 61.2235 56.1241C62.0615 59.1828 61.6395 62.9548 59.0273 64.9524C58.5386 65.3261 56.9461 65.9854 57.5559 66.0667C58.6619 66.2142 59.5509 66.3835 60.6177 66.77C62.2724 67.3695 66.1245 68.4018 66.1245 70.5566" stroke="black" stroke-width="2" stroke-linecap="round"/>
<path d="M66.3192 53.6142C67.296 57.2549 68.4838 60.8719 69.8895 64.3682C70.3286 65.4603 70.8365 66.5499 71.0687 67.7112C71.1686 68.2105 71.017 69.0364 71.2959 69.4747C72.1327 70.7897 75.1528 69.2047 76.0671 68.8905C76.5468 68.7256 80.9022 67.3955 80.73 67.0513" stroke="black" stroke-width="2" stroke-linecap="round"/>
<path d="M80.3405 52.8352C80.2113 52.4605 79.7838 51.2615 79.7888 51.2773C80.517 53.5834 81.2522 55.897 82.0499 58.1797C82.9375 60.7197 83.7714 63.2168 84.3002 65.8612C84.3465 66.0924 84.4035 67.1308 84.6248 66.467" stroke="black" stroke-width="2" stroke-linecap="round"/>
<path d="M81.509 51.0825C80.8085 49.1563 82.9569 48.3498 84.4517 48.0641C86.7153 47.6313 89.2256 46.9236 91.5489 47.2202C93.2299 47.4348 94.9003 49.113 95.963 50.3036C96.972 51.4338 96.8669 52.5225 97.0016 53.9279C97.1758 55.7437 97.7377 58.148 97.0666 59.9216C96.1081 62.4546 93.7262 65.0128 91.2244 65.9694C90.869 66.1052 85.6964 68.4122 85.988 67.246" stroke="black" stroke-width="2" stroke-linecap="round"/>
<path d="M42.1714 81.6568C42.1714 77.4882 42.9467 89.965 43.632 94.0769C44.0735 96.7261 44.7633 99.3285 45.2007 101.975C45.3203 102.698 45.2166 103.421 45.8715 103.857" stroke="black" stroke-width="2" stroke-linecap="round"/>
<path d="M57.5559 78.1514C57.5559 77.8161 57.5559 77.4807 57.5559 77.1453C57.5559 76.0901 57.9141 79.2272 58.1726 80.2503C59.3205 84.7942 61.5129 88.9119 63.2034 93.2546C63.9552 95.1859 65.3432 96.8805 65.8324 98.8913C65.9268 99.2796 66.2371 101.07 66.514 99.9624" stroke="black" stroke-width="2" stroke-linecap="round"/>
<path d="M47.2347 108.726C45.8392 107.609 44.8947 112.001 46.8668 112.22C47.7694 112.32 49.0348 112.422 49.3335 111.257C49.5117 110.562 49.3475 109.709 48.9657 109.115C48.3465 108.152 47.428 108.381 46.4557 108.531" stroke="black" stroke-linecap="round"/>
<path d="M68.6561 103.273C66.1738 103.273 68.1327 109.17 71.231 106.692C71.8397 106.205 72.6036 105.434 72.2047 104.636C71.9598 104.146 71.5258 104.153 71.1445 103.814C70.4231 103.173 68.9518 102.726 68.0719 103.078" stroke="black" stroke-linecap="round"/>
</svg>
