<svg width="222" height="127" viewBox="0 0 222 127" fill="none" xmlns="http://www.w3.org/2000/svg">
<rect width="222" height="127" fill="#F5F5F5"/>
<path d="M12.2388 5.64505C12.2388 4.44731 12.2388 3.24957 12.2388 2.05182C12.2388 -3.81191 12.2388 13.7793 12.2388 19.643C12.2388 33.2371 13.3636 46.8035 13.3636 60.4184C13.3636 60.831 13.1174 64.5081 13.7386 64.3241C15.1196 63.9148 16.341 62.8079 17.738 62.3243C22.1841 60.7853 26.9077 59.9804 31.486 58.9498C38.3767 57.3988 45.39 55.2619 52.358 54.138C55.1657 53.6852 53.5562 54.013 51.6081 54.013" stroke="black" stroke-width="3" stroke-linecap="round"/>
<path d="M12.2388 5.64505C12.2388 4.44731 12.2388 3.24957 12.2388 2.05182C12.2388 -3.81191 12.2388 13.7793 12.2388 19.643C12.2388 33.2371 13.3636 46.8035 13.3636 60.4184C13.3636 60.831 13.1174 64.5081 13.7386 64.3241C15.1196 63.9148 16.341 62.8079 17.738 62.3243C22.1841 60.7853 26.9077 59.9804 31.486 58.9498C38.3767 57.3988 45.39 55.2619 52.358 54.138C55.1657 53.6852 53.5562 54.013 51.6081 54.013" stroke="black" stroke-opacity="0.2" stroke-width="3" stroke-linecap="round"/>
<path d="M12.2388 5.64505C12.2388 4.44731 12.2388 3.24957 12.2388 2.05182C12.2388 -3.81191 12.2388 13.7793 12.2388 19.643C12.2388 33.2371 13.3636 46.8035 13.3636 60.4184C13.3636 60.831 13.1174 64.5081 13.7386 64.3241C15.1196 63.9148 16.341 62.8079 17.738 62.3243C22.1841 60.7853 26.9077 59.9804 31.486 58.9498C38.3767 57.3988 45.39 55.2619 52.358 54.138C55.1657 53.6852 53.5562 54.013 51.6081 54.013" stroke="black" stroke-opacity="0.2" stroke-width="3" stroke-linecap="round"/>
<path d="M66.7934 34.8908C66.7934 34.6711 66.8 32.7292 67.0746 34.0472C67.8866 37.9449 67.3558 42.34 67.3558 46.2954C67.3558 48.0113 66.9484 57.3299 68.4806 51.2009" stroke="black" stroke-width="3" stroke-linecap="round"/>
<path d="M66.7934 34.8908C66.7934 34.6711 66.8 32.7292 67.0746 34.0472C67.8866 37.9449 67.3558 42.34 67.3558 46.2954C67.3558 48.0113 66.9484 57.3299 68.4806 51.2009" stroke="black" stroke-opacity="0.2" stroke-width="3" stroke-linecap="round"/>
<path d="M66.7934 34.8908C66.7934 34.6711 66.8 32.7292 67.0746 34.0472C67.8866 37.9449 67.3558 42.34 67.3558 46.2954C67.3558 48.0113 66.9484 57.3299 68.4806 51.2009" stroke="black" stroke-opacity="0.2" stroke-width="3" stroke-linecap="round"/>
<path d="M63.4188 21.9552C66.3585 21.6286 62.8564 15.9619 62.8564 21.3928" stroke="black" stroke-width="3" stroke-linecap="round"/>
<path d="M63.4188 21.9552C66.3585 21.6286 62.8564 15.9619 62.8564 21.3928" stroke="black" stroke-opacity="0.2" stroke-width="3" stroke-linecap="round"/>
<path d="M63.4188 21.9552C66.3585 21.6286 62.8564 15.9619 62.8564 21.3928" stroke="black" stroke-opacity="0.2" stroke-width="3" stroke-linecap="round"/>
<path d="M77.4793 30.3915C77.5342 29.404 78.0353 27.2574 79.4165 28.5167C80.9309 29.8975 81.3028 32.4373 81.9162 34.2659C83.1252 37.8703 84.4233 41.3851 85.1032 45.1393C85.238 45.8834 87.0321 51.2009 85.7906 51.2009C82.4559 51.2009 83.166 44.8075 83.166 42.8272C83.166 38.1401 89.2771 21.8021 95.4455 30.7977C98.5859 35.3775 98.8512 41.4539 98.8512 46.7953C98.8512 47.7601 98.335 52.8651 99.4136 52.3258" stroke="black" stroke-width="3" stroke-linecap="round"/>
<path d="M77.4793 30.3915C77.5342 29.404 78.0353 27.2574 79.4165 28.5167C80.9309 29.8975 81.3028 32.4373 81.9162 34.2659C83.1252 37.8703 84.4233 41.3851 85.1032 45.1393C85.238 45.8834 87.0321 51.2009 85.7906 51.2009C82.4559 51.2009 83.166 44.8075 83.166 42.8272C83.166 38.1401 89.2771 21.8021 95.4455 30.7977C98.5859 35.3775 98.8512 41.4539 98.8512 46.7953C98.8512 47.7601 98.335 52.8651 99.4136 52.3258" stroke="black" stroke-opacity="0.2" stroke-width="3" stroke-linecap="round"/>
<path d="M77.4793 30.3915C77.5342 29.404 78.0353 27.2574 79.4165 28.5167C80.9309 29.8975 81.3028 32.4373 81.9162 34.2659C83.1252 37.8703 84.4233 41.3851 85.1032 45.1393C85.238 45.8834 87.0321 51.2009 85.7906 51.2009C82.4559 51.2009 83.166 44.8075 83.166 42.8272C83.166 38.1401 89.2771 21.8021 95.4455 30.7977C98.5859 35.3775 98.8512 41.4539 98.8512 46.7953C98.8512 47.7601 98.335 52.8651 99.4136 52.3258" stroke="black" stroke-opacity="0.2" stroke-width="3" stroke-linecap="round"/>
<path d="M113.474 21.3928C115.217 22.7873 115.351 27.2532 115.661 29.2041C116.439 34.09 116.177 39.0046 116.567 43.9208C116.669 45.2018 117.028 51.1536 116.286 46.7016" stroke="black" stroke-width="3" stroke-linecap="round"/>
<path d="M113.474 21.3928C115.217 22.7873 115.351 27.2532 115.661 29.2041C116.439 34.09 116.177 39.0046 116.567 43.9208C116.669 45.2018 117.028 51.1536 116.286 46.7016" stroke="black" stroke-opacity="0.2" stroke-width="3" stroke-linecap="round"/>
<path d="M113.474 21.3928C115.217 22.7873 115.351 27.2532 115.661 29.2041C116.439 34.09 116.177 39.0046 116.567 43.9208C116.669 45.2018 117.028 51.1536 116.286 46.7016" stroke="black" stroke-opacity="0.2" stroke-width="3" stroke-linecap="round"/>
<path d="M112.912 27.0169C112.912 24.267 112.15 21.4519 115.286 20.3929C118.913 19.1683 121.482 19.7723 124.722 21.3928" stroke="black" stroke-width="3" stroke-linecap="round"/>
<path d="M112.912 27.0169C112.912 24.267 112.15 21.4519 115.286 20.3929C118.913 19.1683 121.482 19.7723 124.722 21.3928" stroke="black" stroke-opacity="0.2" stroke-width="3" stroke-linecap="round"/>
<path d="M112.912 27.0169C112.912 24.267 112.15 21.4519 115.286 20.3929C118.913 19.1683 121.482 19.7723 124.722 21.3928" stroke="black" stroke-opacity="0.2" stroke-width="3" stroke-linecap="round"/>
<path d="M117.973 38.2653C117.364 39.5715 123.237 37.289 124.722 37.1405" stroke="black" stroke-width="3" stroke-linecap="round"/>
<path d="M117.973 38.2653C117.364 39.5715 123.237 37.289 124.722 37.1405" stroke="black" stroke-opacity="0.2" stroke-width="3" stroke-linecap="round"/>
<path d="M117.973 38.2653C117.364 39.5715 123.237 37.289 124.722 37.1405" stroke="black" stroke-opacity="0.2" stroke-width="3" stroke-linecap="round"/>
<path d="M116.849 49.5137C115.228 55.3001 131.777 50.229 128.097 48.3889" stroke="black" stroke-width="3" stroke-linecap="round"/>
<path d="M116.849 49.5137C115.228 55.3001 131.777 50.229 128.097 48.3889" stroke="black" stroke-opacity="0.2" stroke-width="3" stroke-linecap="round"/>
<path d="M116.849 49.5137C115.228 55.3001 131.777 50.229 128.097 48.3889" stroke="black" stroke-opacity="0.2" stroke-width="3" stroke-linecap="round"/>
<path d="M1.5528 125.44C5.62815 125.44 8.72402 124.16 12.6137 122.941C23.3096 119.587 34.086 116.882 44.734 113.379C52.6131 110.788 60.7136 109.356 68.7931 107.568C76.7385 105.809 84.5723 102.798 92.3521 100.413C120.594 91.7516 149.339 85.1146 177.965 77.8221C187.93 75.2834 197.659 71.2644 207.773 69.4795C211.575 68.8086 216.311 68.1162 219.771 66.3862" stroke="black" stroke-width="3" stroke-linecap="round"/>
<path d="M1.5528 125.44C5.62815 125.44 8.72402 124.16 12.6137 122.941C23.3096 119.587 34.086 116.882 44.734 113.379C52.6131 110.788 60.7136 109.356 68.7931 107.568C76.7385 105.809 84.5723 102.798 92.3521 100.413C120.594 91.7516 149.339 85.1146 177.965 77.8221C187.93 75.2834 197.659 71.2644 207.773 69.4795C211.575 68.8086 216.311 68.1162 219.771 66.3862" stroke="black" stroke-opacity="0.2" stroke-width="3" stroke-linecap="round"/>
<path d="M1.5528 125.44C5.62815 125.44 8.72402 124.16 12.6137 122.941C23.3096 119.587 34.086 116.882 44.734 113.379C52.6131 110.788 60.7136 109.356 68.7931 107.568C76.7385 105.809 84.5723 102.798 92.3521 100.413C120.594 91.7516 149.339 85.1146 177.965 77.8221C187.93 75.2834 197.659 71.2644 207.773 69.4795C211.575 68.8086 216.311 68.1162 219.771 66.3862" stroke="black" stroke-opacity="0.2" stroke-width="3" stroke-linecap="round"/>
</svg>
